<?xml version="1.0" encoding="UTF-8" standalone="no" ?>
<!DOCTYPE svg PUBLIC "-//W3C//DTD SVG 1.1//EN" "http://www.w3.org/Graphics/SVG/1.1/DTD/svg11.dtd">
<svg xmlns="http://www.w3.org/2000/svg" xmlns:xlink="http://www.w3.org/1999/xlink" version="1.1" width="1080" height="1080" viewBox="0 0 1080 1080" xml:space="preserve">
<desc>Created with Fabric.js 5.2.4</desc>
<defs>
</defs>
<rect x="0" y="0" width="100%" height="100%" fill="transparent"></rect>
<g transform="matrix(1 0 0 1 540 540)" id="69b70e21-4adc-4b11-ad30-66b53a04aae4"  >
<rect style="stroke: none; stroke-width: 1; stroke-dasharray: none; stroke-linecap: butt; stroke-dashoffset: 0; stroke-linejoin: miter; stroke-miterlimit: 4; fill: rgb(118,84,84); fill-rule: nonzero; opacity: 1; visibility: hidden;" vector-effect="non-scaling-stroke"  x="-540" y="-540" rx="0" ry="0" width="1080" height="1080" />
</g>
<g transform="matrix(1 0 0 1 540 540)" id="c8b1026f-5641-4b38-afa3-dc2c7f8a8bcd"  >
</g>
<g transform="matrix(1.06 0 0 1.06 1663.82 423.85)"  >
<path style="stroke: none; stroke-width: 1; stroke-dasharray: none; stroke-linecap: butt; stroke-dashoffset: 0; stroke-linejoin: miter; stroke-miterlimit: 4; fill: rgb(255,255,255); fill-rule: nonzero; opacity: 1;" vector-effect="non-scaling-stroke"  transform=" translate(-463.32, -110.55)" d="M 387.182 93 L 375.909 93 C 375.242 89.7576 374.076 86.9091 372.409 84.4545 C 370.773 82 368.773 79.9394 366.409 78.2727 C 364.076 76.5758 361.485 75.303 358.636 74.4545 C 355.788 73.6061 352.818 73.1818 349.727 73.1818 C 344.091 73.1818 338.985 74.6061 334.409 77.4545 C 329.864 80.303 326.242 84.5 323.545 90.0455 C 320.879 95.5909 319.545 102.394 319.545 110.455 C 319.545 118.515 320.879 125.318 323.545 130.864 C 326.242 136.409 329.864 140.606 334.409 143.455 C 338.985 146.303 344.091 147.727 349.727 147.727 C 352.818 147.727 355.788 147.303 358.636 146.455 C 361.485 145.606 364.076 144.348 366.409 142.682 C 368.773 140.985 370.773 138.909 372.409 136.455 C 374.076 133.97 375.242 131.121 375.909 127.909 L 387.182 127.909 C 386.333 132.667 384.788 136.924 382.545 140.682 C 380.303 144.439 377.515 147.636 374.182 150.273 C 370.848 152.879 367.106 154.864 362.955 156.227 C 358.833 157.591 354.424 158.273 349.727 158.273 C 341.788 158.273 334.727 156.333 328.545 152.455 C 322.364 148.576 317.5 143.061 313.955 135.909 C 310.409 128.758 308.636 120.273 308.636 110.455 C 308.636 100.636 310.409 92.1515 313.955 85 C 317.5 77.8485 322.364 72.3333 328.545 68.4545 C 334.727 64.5758 341.788 62.6364 349.727 62.6364 C 354.424 62.6364 358.833 63.3182 362.955 64.6818 C 367.106 66.0455 370.848 68.0455 374.182 70.6818 C 377.515 73.2879 380.303 76.4697 382.545 80.2273 C 384.788 83.9545 386.333 88.2121 387.182 93 Z M 432.307 158.455 C 426.004 158.455 420.473 156.955 415.716 153.955 C 410.989 150.955 407.292 146.758 404.625 141.364 C 401.989 135.97 400.67 129.667 400.67 122.455 C 400.67 115.182 401.989 108.833 404.625 103.409 C 407.292 97.9848 410.989 93.7727 415.716 90.7727 C 420.473 87.7727 426.004 86.2727 432.307 86.2727 C 438.61 86.2727 444.125 87.7727 448.852 90.7727 C 453.61 93.7727 457.307 97.9848 459.943 103.409 C 462.61 108.833 463.943 115.182 463.943 122.455 C 463.943 129.667 462.61 135.97 459.943 141.364 C 457.307 146.758 453.61 150.955 448.852 153.955 C 444.125 156.955 438.61 158.455 432.307 158.455 Z M 432.307 148.818 C 437.095 148.818 441.034 147.591 444.125 145.136 C 447.216 142.682 449.504 139.455 450.989 135.455 C 452.473 131.455 453.216 127.121 453.216 122.455 C 453.216 117.788 452.473 113.439 450.989 109.409 C 449.504 105.379 447.216 102.121 444.125 99.6364 C 441.034 97.1515 437.095 95.9091 432.307 95.9091 C 427.519 95.9091 423.58 97.1515 420.489 99.6364 C 417.398 102.121 415.11 105.379 413.625 109.409 C 412.14 113.439 411.398 117.788 411.398 122.455 C 411.398 127.121 412.14 131.455 413.625 135.455 C 415.11 139.455 417.398 142.682 420.489 145.136 C 423.58 147.591 427.519 148.818 432.307 148.818 Z M 506.682 158.455 C 500.864 158.455 495.727 156.985 491.273 154.045 C 486.818 151.076 483.333 146.894 480.818 141.5 C 478.303 136.076 477.045 129.667 477.045 122.273 C 477.045 114.939 478.303 108.576 480.818 103.182 C 483.333 97.7879 486.833 93.6212 491.318 90.6818 C 495.803 87.7424 500.985 86.2727 506.864 86.2727 C 511.409 86.2727 515 87.0303 517.636 88.5455 C 520.303 90.0303 522.333 91.7273 523.727 93.6364 C 525.152 95.5151 526.258 97.0606 527.045 98.2727 L 527.955 98.2727 L 527.955 63.9091 L 538.682 63.9091 L 538.682 157 L 528.318 157 L 528.318 146.273 L 527.045 146.273 C 526.258 147.545 525.136 149.152 523.682 151.091 C 522.227 153 520.152 154.712 517.455 156.227 C 514.758 157.712 511.167 158.455 506.682 158.455 Z M 508.136 148.818 C 512.439 148.818 516.076 147.697 519.045 145.455 C 522.015 143.182 524.273 140.045 525.818 136.045 C 527.364 132.015 528.136 127.364 528.136 122.091 C 528.136 116.879 527.379 112.318 525.864 108.409 C 524.348 104.47 522.106 101.409 519.136 99.2273 C 516.167 97.0151 512.5 95.9091 508.136 95.9091 C 503.591 95.9091 499.803 97.0758 496.773 99.4091 C 493.773 101.712 491.515 104.848 490 108.818 C 488.515 112.758 487.773 117.182 487.773 122.091 C 487.773 127.061 488.53 131.576 490.045 135.636 C 491.591 139.667 493.864 142.879 496.864 145.273 C 499.894 147.636 503.652 148.818 508.136 148.818 Z M 589.091 158.455 C 582.364 158.455 576.561 156.97 571.682 154 C 566.833 151 563.091 146.818 560.455 141.455 C 557.848 136.061 556.545 129.788 556.545 122.636 C 556.545 115.485 557.848 109.182 560.455 103.727 C 563.091 98.2424 566.758 93.9697 571.455 90.9091 C 576.182 87.8182 581.697 86.2727 588 86.2727 C 591.636 86.2727 595.227 86.8788 598.773 88.0909 C 602.318 89.303 605.545 91.2727 608.455 94 C 611.364 96.697 613.682 100.273 615.409 104.727 C 617.136 109.182 618 114.667 618 121.182 L 618 125.727 L 564.182 125.727 L 564.182 116.455 L 607.091 116.455 C 607.091 112.515 606.303 109 604.727 105.909 C 603.182 102.818 600.97 100.379 598.091 98.5909 C 595.242 96.803 591.879 95.9091 588 95.9091 C 583.727 95.9091 580.03 96.9697 576.909 99.0909 C 573.818 101.182 571.439 103.909 569.773 107.273 C 568.106 110.636 567.273 114.242 567.273 118.091 L 567.273 124.273 C 567.273 129.545 568.182 134.015 570 137.682 C 571.848 141.318 574.409 144.091 577.682 146 C 580.955 147.879 584.758 148.818 589.091 148.818 C 591.909 148.818 594.455 148.424 596.727 147.636 C 599.03 146.818 601.015 145.606 602.682 144 C 604.348 142.364 605.636 140.333 606.545 137.909 L 616.909 140.818 C 615.818 144.333 613.985 147.424 611.409 150.091 C 608.833 152.727 605.652 154.788 601.864 156.273 C 598.076 157.727 593.818 158.455 589.091 158.455 Z" stroke-linecap="round" />
</g>
<g transform="matrix(1.06 0 0 1.06 1648.49 353.55)"  >
<path style="stroke: none; stroke-width: 0; stroke-dasharray: none; stroke-linecap: butt; stroke-dashoffset: 0; stroke-linejoin: miter; stroke-miterlimit: 4; fill: rgb(57,224,121); fill-rule: nonzero; opacity: 1;" vector-effect="non-scaling-stroke"  transform=" translate(-810.83, -122.91)" d="M 722.682 87.1818 C 722.136 82.5758 719.924 79 716.045 76.4545 C 712.167 73.9091 707.409 72.6364 701.773 72.6364 C 697.652 72.6364 694.045 73.303 690.955 74.6364 C 687.894 75.9697 685.5 77.803 683.773 80.1364 C 682.076 82.4697 681.227 85.1212 681.227 88.0909 C 681.227 90.5758 681.818 92.7121 683 94.5 C 684.212 96.2576 685.758 97.7273 687.636 98.9091 C 689.515 100.061 691.485 101.015 693.545 101.773 C 695.606 102.5 697.5 103.091 699.227 103.545 L 708.682 106.091 C 711.106 106.727 713.803 107.606 716.773 108.727 C 719.773 109.848 722.636 111.379 725.364 113.318 C 728.121 115.227 730.394 117.682 732.182 120.682 C 733.97 123.682 734.864 127.364 734.864 131.727 C 734.864 136.758 733.545 141.303 730.909 145.364 C 728.303 149.424 724.485 152.652 719.455 155.045 C 714.455 157.439 708.379 158.636 701.227 158.636 C 694.561 158.636 688.788 157.561 683.909 155.409 C 679.061 153.258 675.242 150.258 672.455 146.409 C 669.697 142.561 668.136 138.091 667.773 133 L 679.409 133 C 679.712 136.515 680.894 139.424 682.955 141.727 C 685.045 144 687.682 145.697 690.864 146.818 C 694.076 147.909 697.53 148.455 701.227 148.455 C 705.53 148.455 709.394 147.758 712.818 146.364 C 716.242 144.939 718.955 142.97 720.955 140.455 C 722.955 137.909 723.955 134.939 723.955 131.545 C 723.955 128.455 723.091 125.939 721.364 124 C 719.636 122.061 717.364 120.485 714.545 119.273 C 711.727 118.061 708.682 117 705.409 116.091 L 693.955 112.818 C 686.682 110.727 680.924 107.742 676.682 103.864 C 672.439 99.9848 670.318 94.9091 670.318 88.6364 C 670.318 83.4242 671.727 78.8788 674.545 75 C 677.394 71.0909 681.212 68.0606 686 65.9091 C 690.818 63.7273 696.197 62.6364 702.136 62.6364 C 708.136 62.6364 713.47 63.7121 718.136 65.8636 C 722.803 67.9848 726.5 70.8939 729.227 74.5909 C 731.985 78.2879 733.439 82.4848 733.591 87.1818 L 722.682 87.1818 Z M 758.852 183.182 C 757.034 183.182 755.413 183.03 753.989 182.727 C 752.564 182.455 751.58 182.182 751.034 181.909 L 753.761 172.455 C 756.367 173.121 758.67 173.364 760.67 173.182 C 762.67 173 764.443 172.106 765.989 170.5 C 767.564 168.924 769.004 166.364 770.307 162.818 L 772.307 157.364 L 746.489 87.1818 L 758.125 87.1818 L 777.398 142.818 L 778.125 142.818 L 797.398 87.1818 L 809.034 87.1818 L 779.398 167.182 C 778.064 170.788 776.413 173.773 774.443 176.136 C 772.473 178.53 770.186 180.303 767.58 181.455 C 765.004 182.606 762.095 183.182 758.852 183.182 Z M 833.92 115 L 833.92 157 L 823.193 157 L 823.193 87.1818 L 833.557 87.1818 L 833.557 98.0909 L 834.466 98.0909 C 836.102 94.5455 838.587 91.697 841.92 89.5455 C 845.254 87.3636 849.557 86.2727 854.83 86.2727 C 859.557 86.2727 863.693 87.2424 867.239 89.1818 C 870.784 91.0909 873.542 94 875.511 97.9091 C 877.481 101.788 878.466 106.697 878.466 112.636 L 878.466 157 L 867.739 157 L 867.739 113.364 C 867.739 107.879 866.314 103.606 863.466 100.545 C 860.617 97.4545 856.708 95.9091 851.739 95.9091 C 848.314 95.9091 845.254 96.6515 842.557 98.1364 C 839.89 99.6212 837.784 101.788 836.239 104.636 C 834.693 107.485 833.92 110.939 833.92 115 Z M 926.432 158.455 C 919.886 158.455 914.25 156.909 909.523 153.818 C 904.795 150.727 901.159 146.47 898.614 141.045 C 896.068 135.621 894.795 129.424 894.795 122.455 C 894.795 115.364 896.098 109.106 898.705 103.682 C 901.341 98.2273 905.008 93.9697 909.705 90.9091 C 914.432 87.8182 919.947 86.2727 926.25 86.2727 C 931.159 86.2727 935.583 87.1818 939.523 89 C 943.462 90.8182 946.689 93.3636 949.205 96.6364 C 951.72 99.9091 953.28 103.727 953.886 108.091 L 943.159 108.091 C 942.341 104.909 940.523 102.091 937.705 99.6364 C 934.917 97.1515 931.159 95.9091 926.432 95.9091 C 922.25 95.9091 918.583 97 915.432 99.1818 C 912.311 101.333 909.871 104.379 908.114 108.318 C 906.386 112.227 905.523 116.818 905.523 122.091 C 905.523 127.485 906.371 132.182 908.068 136.182 C 909.795 140.182 912.22 143.288 915.341 145.5 C 918.492 147.712 922.189 148.818 926.432 148.818 C 929.22 148.818 931.75 148.333 934.023 147.364 C 936.295 146.394 938.22 145 939.795 143.182 C 941.371 141.364 942.492 139.182 943.159 136.636 L 953.886 136.636 C 953.28 140.758 951.78 144.47 949.386 147.773 C 947.023 151.045 943.886 153.652 939.977 155.591 C 936.098 157.5 931.583 158.455 926.432 158.455 Z" stroke-linecap="round" />
</g>
<g transform="matrix(1.14 0 0 1.43 675.45 675.11)"  >
<path style="stroke: none; stroke-width: 1; stroke-dasharray: none; stroke-linecap: butt; stroke-dashoffset: 0; stroke-linejoin: miter; stroke-miterlimit: 4; fill: rgb(255,255,255); fill-rule: nonzero; opacity: 1;" vector-effect="non-scaling-stroke"  transform=" translate(-629.98, -208.82)" d="M 343.199 202 L 340.557 202 C 340.401 201.24 340.127 200.572 339.737 199.997 C 339.353 199.422 338.884 198.939 338.33 198.548 C 337.783 198.151 337.176 197.852 336.509 197.653 C 335.841 197.455 335.145 197.355 334.42 197.355 C 333.099 197.355 331.903 197.689 330.83 198.357 C 329.765 199.024 328.916 200.008 328.284 201.308 C 327.659 202.607 327.347 204.202 327.347 206.091 C 327.347 207.98 327.659 209.575 328.284 210.874 C 328.916 212.174 329.765 213.158 330.83 213.825 C 331.903 214.493 333.099 214.827 334.42 214.827 C 335.145 214.827 335.841 214.727 336.509 214.528 C 337.176 214.33 337.783 214.035 338.33 213.644 C 338.884 213.246 339.353 212.76 339.737 212.185 C 340.127 211.602 340.401 210.935 340.557 210.182 L 343.199 210.182 C 343 211.297 342.638 212.295 342.112 213.175 C 341.587 214.056 340.933 214.805 340.152 215.423 C 339.371 216.034 338.494 216.499 337.521 216.819 C 336.555 217.138 335.521 217.298 334.42 217.298 C 332.56 217.298 330.905 216.844 329.456 215.935 C 328.007 215.026 326.867 213.733 326.036 212.057 C 325.205 210.381 324.79 208.392 324.79 206.091 C 324.79 203.79 325.205 201.801 326.036 200.125 C 326.867 198.449 328.007 197.156 329.456 196.247 C 330.905 195.338 332.56 194.884 334.42 194.884 C 335.521 194.884 336.555 195.043 337.521 195.363 C 338.494 195.683 339.371 196.151 340.152 196.769 C 340.933 197.38 341.587 198.126 342.112 199.006 C 342.638 199.88 343 200.878 343.199 202 Z M 353.775 217.341 C 352.298 217.341 351.002 216.989 349.887 216.286 C 348.779 215.583 347.912 214.599 347.287 213.335 C 346.669 212.071 346.36 210.594 346.36 208.903 C 346.36 207.199 346.669 205.711 347.287 204.44 C 347.912 203.168 348.779 202.181 349.887 201.478 C 351.002 200.775 352.298 200.423 353.775 200.423 C 355.252 200.423 356.545 200.775 357.653 201.478 C 358.768 202.181 359.634 203.168 360.252 204.44 C 360.877 205.711 361.19 207.199 361.19 208.903 C 361.19 210.594 360.877 212.071 360.252 213.335 C 359.634 214.599 358.768 215.583 357.653 216.286 C 356.545 216.989 355.252 217.341 353.775 217.341 Z M 353.775 215.082 C 354.897 215.082 355.82 214.795 356.545 214.219 C 357.269 213.644 357.806 212.888 358.154 211.95 C 358.502 211.013 358.676 209.997 358.676 208.903 C 358.676 207.81 358.502 206.79 358.154 205.846 C 357.806 204.901 357.269 204.138 356.545 203.555 C 355.82 202.973 354.897 202.682 353.775 202.682 C 352.653 202.682 351.73 202.973 351.005 203.555 C 350.281 204.138 349.744 204.901 349.396 205.846 C 349.048 206.79 348.874 207.81 348.874 208.903 C 348.874 209.997 349.048 211.013 349.396 211.95 C 349.744 212.888 350.281 213.644 351.005 214.219 C 351.73 214.795 352.653 215.082 353.775 215.082 Z M 371.207 217.341 C 369.843 217.341 368.639 216.996 367.595 216.308 C 366.551 215.612 365.734 214.631 365.145 213.367 C 364.555 212.096 364.261 210.594 364.261 208.861 C 364.261 207.142 364.555 205.651 365.145 204.386 C 365.734 203.122 366.555 202.146 367.606 201.457 C 368.657 200.768 369.871 200.423 371.249 200.423 C 372.315 200.423 373.156 200.601 373.774 200.956 C 374.399 201.304 374.875 201.702 375.202 202.149 C 375.536 202.589 375.795 202.952 375.979 203.236 L 376.192 203.236 L 376.192 195.182 L 378.707 195.182 L 378.707 217 L 376.278 217 L 376.278 214.486 L 375.979 214.486 C 375.795 214.784 375.532 215.161 375.191 215.615 C 374.85 216.062 374.364 216.464 373.732 216.819 C 373.099 217.167 372.258 217.341 371.207 217.341 Z M 371.548 215.082 C 372.556 215.082 373.408 214.82 374.104 214.294 C 374.8 213.761 375.33 213.026 375.692 212.089 C 376.054 211.144 376.235 210.054 376.235 208.818 C 376.235 207.597 376.058 206.528 375.702 205.612 C 375.347 204.688 374.822 203.971 374.126 203.46 C 373.43 202.941 372.57 202.682 371.548 202.682 C 370.482 202.682 369.594 202.955 368.884 203.502 C 368.181 204.042 367.652 204.777 367.297 205.707 C 366.949 206.631 366.775 207.668 366.775 208.818 C 366.775 209.983 366.952 211.041 367.308 211.993 C 367.67 212.937 368.202 213.69 368.906 214.251 C 369.616 214.805 370.496 215.082 371.548 215.082 Z M 390.521 217.341 C 388.945 217.341 387.585 216.993 386.441 216.297 C 385.305 215.594 384.428 214.614 383.81 213.357 C 383.199 212.092 382.893 210.622 382.893 208.946 C 382.893 207.27 383.199 205.793 383.81 204.514 C 384.428 203.229 385.287 202.227 386.388 201.51 C 387.496 200.786 388.788 200.423 390.266 200.423 C 391.118 200.423 391.96 200.565 392.79 200.849 C 393.621 201.134 394.378 201.595 395.06 202.234 C 395.741 202.866 396.285 203.705 396.69 204.749 C 397.094 205.793 397.297 207.078 397.297 208.605 L 397.297 209.67 L 384.683 209.67 L 384.683 207.497 L 394.74 207.497 C 394.74 206.574 394.555 205.75 394.186 205.026 C 393.824 204.301 393.305 203.729 392.631 203.31 C 391.963 202.891 391.175 202.682 390.266 202.682 C 389.264 202.682 388.398 202.93 387.666 203.428 C 386.942 203.918 386.384 204.557 385.994 205.345 C 385.603 206.134 385.408 206.979 385.408 207.881 L 385.408 209.33 C 385.408 210.565 385.621 211.613 386.047 212.472 C 386.48 213.325 387.08 213.974 387.847 214.422 C 388.614 214.862 389.506 215.082 390.521 215.082 C 391.182 215.082 391.778 214.99 392.311 214.805 C 392.851 214.614 393.316 214.33 393.707 213.953 C 394.097 213.57 394.399 213.094 394.612 212.526 L 397.041 213.207 C 396.786 214.031 396.356 214.756 395.752 215.381 C 395.148 215.999 394.403 216.482 393.515 216.83 C 392.627 217.17 391.629 217.341 390.521 217.341 Z M 404.871 214.017 L 404.701 215.168 C 404.58 215.977 404.396 216.844 404.147 217.767 C 403.906 218.69 403.653 219.56 403.391 220.377 C 403.128 221.194 402.911 221.844 402.741 222.327 L 400.823 222.327 C 400.915 221.872 401.036 221.272 401.185 220.526 C 401.335 219.781 401.484 218.946 401.633 218.023 C 401.789 217.107 401.917 216.169 402.016 215.21 L 402.144 214.017 L 404.871 214.017 Z M 435.865 202 L 433.223 202 C 433.067 201.24 432.793 200.572 432.403 199.997 C 432.019 199.422 431.55 198.939 430.996 198.548 C 430.449 198.151 429.842 197.852 429.175 197.653 C 428.507 197.455 427.811 197.355 427.086 197.355 C 425.765 197.355 424.569 197.689 423.496 198.357 C 422.431 199.024 421.582 200.008 420.95 201.308 C 420.325 202.607 420.013 204.202 420.013 206.091 C 420.013 207.98 420.325 209.575 420.95 210.874 C 421.582 212.174 422.431 213.158 423.496 213.825 C 424.569 214.493 425.765 214.827 427.086 214.827 C 427.811 214.827 428.507 214.727 429.175 214.528 C 429.842 214.33 430.449 214.035 430.996 213.644 C 431.55 213.246 432.019 212.76 432.403 212.185 C 432.793 211.602 433.067 210.935 433.223 210.182 L 435.865 210.182 C 435.666 211.297 435.304 212.295 434.778 213.175 C 434.253 214.056 433.599 214.805 432.818 215.423 C 432.037 216.034 431.16 216.499 430.187 216.819 C 429.221 217.138 428.187 217.298 427.086 217.298 C 425.226 217.298 423.571 216.844 422.122 215.935 C 420.673 215.026 419.533 213.733 418.702 212.057 C 417.871 210.381 417.456 208.392 417.456 206.091 C 417.456 203.79 417.871 201.801 418.702 200.125 C 419.533 198.449 420.673 197.156 422.122 196.247 C 423.571 195.338 425.226 194.884 427.086 194.884 C 428.187 194.884 429.221 195.043 430.187 195.363 C 431.16 195.683 432.037 196.151 432.818 196.769 C 433.599 197.38 434.253 198.126 434.778 199.006 C 435.304 199.88 435.666 200.878 435.865 202 Z M 442.308 207.156 L 442.308 217 L 439.793 217 L 439.793 195.182 L 442.308 195.182 L 442.308 203.193 L 442.521 203.193 C 442.904 202.348 443.479 201.677 444.246 201.18 C 445.021 200.675 446.05 200.423 447.336 200.423 C 448.451 200.423 449.428 200.647 450.266 201.094 C 451.104 201.535 451.754 202.213 452.215 203.129 C 452.684 204.038 452.918 205.196 452.918 206.602 L 452.918 217 L 450.404 217 L 450.404 206.773 C 450.404 205.473 450.067 204.468 449.392 203.758 C 448.724 203.04 447.798 202.682 446.612 202.682 C 445.788 202.682 445.049 202.856 444.396 203.204 C 443.749 203.552 443.238 204.06 442.862 204.727 C 442.492 205.395 442.308 206.205 442.308 207.156 Z M 462.333 217.384 C 461.296 217.384 460.355 217.188 459.51 216.798 C 458.665 216.4 457.994 215.828 457.497 215.082 C 456.999 214.33 456.751 213.42 456.751 212.355 C 456.751 211.418 456.936 210.658 457.305 210.075 C 457.674 209.486 458.168 209.024 458.786 208.69 C 459.404 208.357 460.085 208.108 460.831 207.945 C 461.584 207.774 462.34 207.639 463.1 207.54 C 464.095 207.412 464.901 207.316 465.519 207.252 C 466.144 207.181 466.598 207.064 466.882 206.901 C 467.173 206.737 467.319 206.453 467.319 206.048 L 467.319 205.963 C 467.319 204.912 467.031 204.095 466.456 203.513 C 465.888 202.93 465.025 202.639 463.867 202.639 C 462.667 202.639 461.726 202.902 461.044 203.428 C 460.362 203.953 459.883 204.514 459.606 205.111 L 457.22 204.259 C 457.646 203.264 458.214 202.49 458.924 201.936 C 459.642 201.375 460.423 200.984 461.268 200.764 C 462.12 200.537 462.958 200.423 463.782 200.423 C 464.308 200.423 464.911 200.487 465.593 200.615 C 466.282 200.736 466.946 200.988 467.585 201.371 C 468.232 201.755 468.768 202.334 469.194 203.108 C 469.62 203.882 469.833 204.919 469.833 206.219 L 469.833 217 L 467.319 217 L 467.319 214.784 L 467.191 214.784 C 467.021 215.139 466.737 215.519 466.339 215.924 C 465.941 216.329 465.412 216.673 464.752 216.957 C 464.091 217.241 463.285 217.384 462.333 217.384 Z M 462.717 215.125 C 463.711 215.125 464.549 214.93 465.231 214.539 C 465.92 214.148 466.438 213.644 466.786 213.026 C 467.142 212.408 467.319 211.759 467.319 211.077 L 467.319 208.776 C 467.213 208.903 466.978 209.021 466.616 209.127 C 466.261 209.227 465.849 209.315 465.38 209.393 C 464.919 209.464 464.468 209.528 464.027 209.585 C 463.594 209.635 463.242 209.678 462.972 209.713 C 462.319 209.798 461.708 209.937 461.14 210.129 C 460.579 210.313 460.124 210.594 459.776 210.97 C 459.436 211.339 459.265 211.844 459.265 212.483 C 459.265 213.357 459.588 214.017 460.235 214.464 C 460.888 214.905 461.715 215.125 462.717 215.125 Z M 481.539 200.636 L 481.539 202.767 L 473.059 202.767 L 473.059 200.636 L 481.539 200.636 Z M 475.53 196.716 L 478.044 196.716 L 478.044 212.312 C 478.044 213.023 478.147 213.555 478.353 213.911 C 478.566 214.259 478.836 214.493 479.163 214.614 C 479.497 214.727 479.848 214.784 480.218 214.784 C 480.495 214.784 480.722 214.77 480.9 214.741 C 481.077 214.706 481.219 214.678 481.326 214.656 L 481.837 216.915 C 481.667 216.979 481.429 217.043 481.123 217.107 C 480.818 217.178 480.431 217.213 479.962 217.213 C 479.252 217.213 478.556 217.06 477.874 216.755 C 477.199 216.45 476.638 215.984 476.191 215.359 C 475.75 214.734 475.53 213.946 475.53 212.994 L 475.53 196.716 Z M 498.574 217.384 C 497.537 217.384 496.596 217.188 495.75 216.798 C 494.905 216.4 494.234 215.828 493.737 215.082 C 493.24 214.33 492.991 213.42 492.991 212.355 C 492.991 211.418 493.176 210.658 493.545 210.075 C 493.914 209.486 494.408 209.024 495.026 208.69 C 495.644 208.357 496.326 208.108 497.071 207.945 C 497.824 207.774 498.581 207.639 499.341 207.54 C 500.335 207.412 501.141 207.316 501.759 207.252 C 502.384 207.181 502.838 207.064 503.123 206.901 C 503.414 206.737 503.559 206.453 503.559 206.048 L 503.559 205.963 C 503.559 204.912 503.272 204.095 502.696 203.513 C 502.128 202.93 501.265 202.639 500.108 202.639 C 498.907 202.639 497.966 202.902 497.284 203.428 C 496.603 203.953 496.123 204.514 495.846 205.111 L 493.46 204.259 C 493.886 203.264 494.454 202.49 495.164 201.936 C 495.882 201.375 496.663 200.984 497.508 200.764 C 498.36 200.537 499.199 200.423 500.022 200.423 C 500.548 200.423 501.152 200.487 501.833 200.615 C 502.522 200.736 503.186 200.988 503.826 201.371 C 504.472 201.755 505.008 202.334 505.434 203.108 C 505.86 203.882 506.074 204.919 506.074 206.219 L 506.074 217 L 503.559 217 L 503.559 214.784 L 503.431 214.784 C 503.261 215.139 502.977 215.519 502.579 215.924 C 502.181 216.329 501.652 216.673 500.992 216.957 C 500.331 217.241 499.525 217.384 498.574 217.384 Z M 498.957 215.125 C 499.951 215.125 500.789 214.93 501.471 214.539 C 502.16 214.148 502.679 213.644 503.027 213.026 C 503.382 212.408 503.559 211.759 503.559 211.077 L 503.559 208.776 C 503.453 208.903 503.218 209.021 502.856 209.127 C 502.501 209.227 502.089 209.315 501.62 209.393 C 501.159 209.464 500.708 209.528 500.267 209.585 C 499.834 209.635 499.483 209.678 499.213 209.713 C 498.559 209.798 497.949 209.937 497.38 210.129 C 496.819 210.313 496.365 210.594 496.017 210.97 C 495.676 211.339 495.505 211.844 495.505 212.483 C 495.505 213.357 495.828 214.017 496.475 214.464 C 497.128 214.905 497.956 215.125 498.957 215.125 Z M 513.177 207.156 L 513.177 217 L 510.662 217 L 510.662 200.636 L 513.091 200.636 L 513.091 203.193 L 513.305 203.193 C 513.688 202.362 514.27 201.695 515.052 201.19 C 515.833 200.679 516.841 200.423 518.077 200.423 C 519.185 200.423 520.155 200.651 520.986 201.105 C 521.817 201.553 522.463 202.234 522.925 203.151 C 523.386 204.06 523.617 205.21 523.617 206.602 L 523.617 217 L 521.103 217 L 521.103 206.773 C 521.103 205.487 520.769 204.486 520.101 203.768 C 519.434 203.044 518.518 202.682 517.353 202.682 C 516.55 202.682 515.833 202.856 515.201 203.204 C 514.576 203.552 514.082 204.06 513.72 204.727 C 513.358 205.395 513.177 206.205 513.177 207.156 Z M 534.39 217.341 C 533.027 217.341 531.823 216.996 530.779 216.308 C 529.735 215.612 528.918 214.631 528.328 213.367 C 527.739 212.096 527.444 210.594 527.444 208.861 C 527.444 207.142 527.739 205.651 528.328 204.386 C 528.918 203.122 529.738 202.146 530.789 201.457 C 531.841 200.768 533.055 200.423 534.433 200.423 C 535.498 200.423 536.34 200.601 536.958 200.956 C 537.583 201.304 538.059 201.702 538.385 202.149 C 538.719 202.589 538.978 202.952 539.163 203.236 L 539.376 203.236 L 539.376 195.182 L 541.89 195.182 L 541.89 217 L 539.461 217 L 539.461 214.486 L 539.163 214.486 C 538.978 214.784 538.716 215.161 538.375 215.615 C 538.034 216.062 537.547 216.464 536.915 216.819 C 536.283 217.167 535.441 217.341 534.39 217.341 Z M 534.731 215.082 C 535.74 215.082 536.592 214.82 537.288 214.294 C 537.984 213.761 538.513 213.026 538.875 212.089 C 539.238 211.144 539.419 210.054 539.419 208.818 C 539.419 207.597 539.241 206.528 538.886 205.612 C 538.531 204.688 538.005 203.971 537.309 203.46 C 536.613 202.941 535.754 202.682 534.731 202.682 C 533.666 202.682 532.778 202.955 532.068 203.502 C 531.365 204.042 530.836 204.777 530.48 205.707 C 530.132 206.631 529.958 207.668 529.958 208.818 C 529.958 209.983 530.136 211.041 530.491 211.993 C 530.853 212.937 531.386 213.69 532.089 214.251 C 532.799 214.805 533.68 215.082 534.731 215.082 Z M 573.179 202 L 570.537 202 C 570.381 201.24 570.108 200.572 569.717 199.997 C 569.333 199.422 568.865 198.939 568.311 198.548 C 567.764 198.151 567.157 197.852 566.489 197.653 C 565.821 197.455 565.125 197.355 564.401 197.355 C 563.08 197.355 561.883 197.689 560.811 198.357 C 559.745 199.024 558.897 200.008 558.265 201.308 C 557.64 202.607 557.327 204.202 557.327 206.091 C 557.327 207.98 557.64 209.575 558.265 210.874 C 558.897 212.174 559.745 213.158 560.811 213.825 C 561.883 214.493 563.08 214.827 564.401 214.827 C 565.125 214.827 565.821 214.727 566.489 214.528 C 567.157 214.33 567.764 214.035 568.311 213.644 C 568.865 213.246 569.333 212.76 569.717 212.185 C 570.108 211.602 570.381 210.935 570.537 210.182 L 573.179 210.182 C 572.98 211.297 572.618 212.295 572.093 213.175 C 571.567 214.056 570.914 214.805 570.132 215.423 C 569.351 216.034 568.474 216.499 567.501 216.819 C 566.535 217.138 565.502 217.298 564.401 217.298 C 562.54 217.298 560.885 216.844 559.436 215.935 C 557.988 215.026 556.848 213.733 556.017 212.057 C 555.186 210.381 554.77 208.392 554.77 206.091 C 554.77 203.79 555.186 201.801 556.017 200.125 C 556.848 198.449 557.988 197.156 559.436 196.247 C 560.885 195.338 562.54 194.884 564.401 194.884 C 565.502 194.884 566.535 195.043 567.501 195.363 C 568.474 195.683 569.351 196.151 570.132 196.769 C 570.914 197.38 571.567 198.126 572.093 199.006 C 572.618 199.88 572.98 200.878 573.179 202 Z M 583.756 217.341 C 582.278 217.341 580.982 216.989 579.867 216.286 C 578.759 215.583 577.893 214.599 577.268 213.335 C 576.65 212.071 576.341 210.594 576.341 208.903 C 576.341 207.199 576.65 205.711 577.268 204.44 C 577.893 203.168 578.759 202.181 579.867 201.478 C 580.982 200.775 582.278 200.423 583.756 200.423 C 585.233 200.423 586.525 200.775 587.633 201.478 C 588.748 202.181 589.615 203.168 590.233 204.44 C 590.858 205.711 591.17 207.199 591.17 208.903 C 591.17 210.594 590.858 212.071 590.233 213.335 C 589.615 214.599 588.748 215.583 587.633 216.286 C 586.525 216.989 585.233 217.341 583.756 217.341 Z M 583.756 215.082 C 584.878 215.082 585.801 214.795 586.525 214.219 C 587.25 213.644 587.786 212.888 588.134 211.95 C 588.482 211.013 588.656 209.997 588.656 208.903 C 588.656 207.81 588.482 206.79 588.134 205.846 C 587.786 204.901 587.25 204.138 586.525 203.555 C 585.801 202.973 584.878 202.682 583.756 202.682 C 582.633 202.682 581.71 202.973 580.986 203.555 C 580.261 204.138 579.725 204.901 579.377 205.846 C 579.029 206.79 578.855 207.81 578.855 208.903 C 578.855 209.997 579.029 211.013 579.377 211.95 C 579.725 212.888 580.261 213.644 580.986 214.219 C 581.71 214.795 582.633 215.082 583.756 215.082 Z M 597.522 195.182 L 597.522 217 L 595.008 217 L 595.008 195.182 L 597.522 195.182 Z M 604.642 195.182 L 604.642 217 L 602.127 217 L 602.127 195.182 L 604.642 195.182 Z M 614.062 217.384 C 613.025 217.384 612.084 217.188 611.239 216.798 C 610.393 216.4 609.722 215.828 609.225 215.082 C 608.728 214.33 608.479 213.42 608.479 212.355 C 608.479 211.418 608.664 210.658 609.033 210.075 C 609.403 209.486 609.896 209.024 610.514 208.69 C 611.132 208.357 611.814 208.108 612.56 207.945 C 613.313 207.774 614.069 207.639 614.829 207.54 C 615.823 207.412 616.629 207.316 617.247 207.252 C 617.872 207.181 618.327 207.064 618.611 206.901 C 618.902 206.737 619.048 206.453 619.048 206.048 L 619.048 205.963 C 619.048 204.912 618.76 204.095 618.185 203.513 C 617.616 202.93 616.754 202.639 615.596 202.639 C 614.396 202.639 613.455 202.902 612.773 203.428 C 612.091 203.953 611.612 204.514 611.335 205.111 L 608.948 204.259 C 609.374 203.264 609.942 202.49 610.653 201.936 C 611.37 201.375 612.151 200.984 612.996 200.764 C 613.849 200.537 614.687 200.423 615.511 200.423 C 616.036 200.423 616.64 200.487 617.322 200.615 C 618.011 200.736 618.675 200.988 619.314 201.371 C 619.96 201.755 620.496 202.334 620.923 203.108 C 621.349 203.882 621.562 204.919 621.562 206.219 L 621.562 217 L 619.048 217 L 619.048 214.784 L 618.92 214.784 C 618.749 215.139 618.465 215.519 618.067 215.924 C 617.67 216.329 617.141 216.673 616.48 216.957 C 615.82 217.241 615.013 217.384 614.062 217.384 Z M 614.445 215.125 C 615.44 215.125 616.278 214.93 616.96 214.539 C 617.648 214.148 618.167 213.644 618.515 213.026 C 618.87 212.408 619.048 211.759 619.048 211.077 L 619.048 208.776 C 618.941 208.903 618.707 209.021 618.344 209.127 C 617.989 209.227 617.577 209.315 617.109 209.393 C 616.647 209.464 616.196 209.528 615.756 209.585 C 615.322 209.635 614.971 209.678 614.701 209.713 C 614.048 209.798 613.437 209.937 612.869 210.129 C 612.308 210.313 611.853 210.594 611.505 210.97 C 611.164 211.339 610.994 211.844 610.994 212.483 C 610.994 213.357 611.317 214.017 611.963 214.464 C 612.616 214.905 613.444 215.125 614.445 215.125 Z M 626.492 217 L 626.492 195.182 L 629.006 195.182 L 629.006 203.236 L 629.219 203.236 C 629.404 202.952 629.659 202.589 629.986 202.149 C 630.32 201.702 630.796 201.304 631.414 200.956 C 632.039 200.601 632.884 200.423 633.949 200.423 C 635.327 200.423 636.541 200.768 637.593 201.457 C 638.644 202.146 639.464 203.122 640.053 204.386 C 640.643 205.651 640.938 207.142 640.938 208.861 C 640.938 210.594 640.643 212.096 640.053 213.367 C 639.464 214.631 638.647 215.612 637.603 216.308 C 636.559 216.996 635.355 217.341 633.992 217.341 C 632.941 217.341 632.099 217.167 631.467 216.819 C 630.835 216.464 630.348 216.062 630.007 215.615 C 629.666 215.161 629.404 214.784 629.219 214.486 L 628.921 214.486 L 628.921 217 L 626.492 217 Z M 628.963 208.818 C 628.963 210.054 629.144 211.144 629.507 212.089 C 629.869 213.026 630.398 213.761 631.094 214.294 C 631.79 214.82 632.642 215.082 633.651 215.082 C 634.702 215.082 635.579 214.805 636.282 214.251 C 636.992 213.69 637.525 212.937 637.88 211.993 C 638.242 211.041 638.423 209.983 638.423 208.818 C 638.423 207.668 638.246 206.631 637.891 205.707 C 637.543 204.777 637.014 204.042 636.303 203.502 C 635.6 202.955 634.716 202.682 633.651 202.682 C 632.628 202.682 631.769 202.941 631.073 203.46 C 630.377 203.971 629.851 204.688 629.496 205.612 C 629.141 206.528 628.963 207.597 628.963 208.818 Z M 651.431 217.341 C 649.954 217.341 648.658 216.989 647.543 216.286 C 646.435 215.583 645.568 214.599 644.943 213.335 C 644.325 212.071 644.017 210.594 644.017 208.903 C 644.017 207.199 644.325 205.711 644.943 204.44 C 645.568 203.168 646.435 202.181 647.543 201.478 C 648.658 200.775 649.954 200.423 651.431 200.423 C 652.909 200.423 654.201 200.775 655.309 201.478 C 656.424 202.181 657.291 203.168 657.909 204.44 C 658.534 205.711 658.846 207.199 658.846 208.903 C 658.846 210.594 658.534 212.071 657.909 213.335 C 657.291 214.599 656.424 215.583 655.309 216.286 C 654.201 216.989 652.909 217.341 651.431 217.341 Z M 651.431 215.082 C 652.553 215.082 653.477 214.795 654.201 214.219 C 654.926 213.644 655.462 212.888 655.81 211.95 C 656.158 211.013 656.332 209.997 656.332 208.903 C 656.332 207.81 656.158 206.79 655.81 205.846 C 655.462 204.901 654.926 204.138 654.201 203.555 C 653.477 202.973 652.553 202.682 651.431 202.682 C 650.309 202.682 649.386 202.973 648.661 203.555 C 647.937 204.138 647.401 204.901 647.053 205.846 C 646.705 206.79 646.531 207.81 646.531 208.903 C 646.531 209.997 646.705 211.013 647.053 211.95 C 647.401 212.888 647.937 213.644 648.661 214.219 C 649.386 214.795 650.309 215.082 651.431 215.082 Z M 662.684 217 L 662.684 200.636 L 665.113 200.636 L 665.113 203.108 L 665.283 203.108 C 665.582 202.298 666.121 201.641 666.903 201.137 C 667.684 200.633 668.565 200.381 669.545 200.381 C 669.729 200.381 669.96 200.384 670.237 200.391 C 670.514 200.398 670.724 200.409 670.866 200.423 L 670.866 202.98 C 670.781 202.959 670.585 202.927 670.28 202.884 C 669.982 202.835 669.665 202.81 669.332 202.81 C 668.536 202.81 667.826 202.977 667.201 203.31 C 666.583 203.637 666.093 204.092 665.731 204.674 C 665.376 205.249 665.198 205.906 665.198 206.645 L 665.198 217 L 662.684 217 Z M 678.661 217.384 C 677.624 217.384 676.683 217.188 675.838 216.798 C 674.993 216.4 674.322 215.828 673.825 215.082 C 673.328 214.33 673.079 213.42 673.079 212.355 C 673.079 211.418 673.264 210.658 673.633 210.075 C 674.002 209.486 674.496 209.024 675.114 208.69 C 675.732 208.357 676.414 208.108 677.159 207.945 C 677.912 207.774 678.669 207.639 679.428 207.54 C 680.423 207.412 681.229 207.316 681.847 207.252 C 682.472 207.181 682.926 207.064 683.21 206.901 C 683.502 206.737 683.647 206.453 683.647 206.048 L 683.647 205.963 C 683.647 204.912 683.36 204.095 682.784 203.513 C 682.216 202.93 681.353 202.639 680.195 202.639 C 678.995 202.639 678.054 202.902 677.372 203.428 C 676.691 203.953 676.211 204.514 675.934 205.111 L 673.548 204.259 C 673.974 203.264 674.542 202.49 675.252 201.936 C 675.97 201.375 676.751 200.984 677.596 200.764 C 678.448 200.537 679.286 200.423 680.11 200.423 C 680.636 200.423 681.24 200.487 681.921 200.615 C 682.61 200.736 683.274 200.988 683.914 201.371 C 684.56 201.755 685.096 202.334 685.522 203.108 C 685.948 203.882 686.161 204.919 686.161 206.219 L 686.161 217 L 683.647 217 L 683.647 214.784 L 683.519 214.784 C 683.349 215.139 683.065 215.519 682.667 215.924 C 682.269 216.329 681.74 216.673 681.08 216.957 C 680.419 217.241 679.613 217.384 678.661 217.384 Z M 679.045 215.125 C 680.039 215.125 680.877 214.93 681.559 214.539 C 682.248 214.148 682.767 213.644 683.115 213.026 C 683.47 212.408 683.647 211.759 683.647 211.077 L 683.647 208.776 C 683.541 208.903 683.306 209.021 682.944 209.127 C 682.589 209.227 682.177 209.315 681.708 209.393 C 681.247 209.464 680.796 209.528 680.355 209.585 C 679.922 209.635 679.57 209.678 679.301 209.713 C 678.647 209.798 678.036 209.937 677.468 210.129 C 676.907 210.313 676.453 210.594 676.105 210.97 C 675.764 211.339 675.593 211.844 675.593 212.483 C 675.593 213.357 675.916 214.017 676.563 214.464 C 677.216 214.905 678.044 215.125 679.045 215.125 Z M 697.867 200.636 L 697.867 202.767 L 689.387 202.767 L 689.387 200.636 L 697.867 200.636 Z M 691.858 196.716 L 694.373 196.716 L 694.373 212.312 C 694.373 213.023 694.475 213.555 694.681 213.911 C 694.895 214.259 695.164 214.493 695.491 214.614 C 695.825 214.727 696.176 214.784 696.546 214.784 C 696.823 214.784 697.05 214.77 697.228 214.741 C 697.405 214.706 697.547 214.678 697.654 214.656 L 698.165 216.915 C 697.995 216.979 697.757 217.043 697.451 217.107 C 697.146 217.178 696.759 217.213 696.29 217.213 C 695.58 217.213 694.884 217.06 694.202 216.755 C 693.527 216.45 692.966 215.984 692.519 215.359 C 692.078 214.734 691.858 213.946 691.858 212.994 L 691.858 196.716 Z M 708.334 217.341 C 706.757 217.341 705.397 216.993 704.254 216.297 C 703.117 215.594 702.24 214.614 701.622 213.357 C 701.011 212.092 700.706 210.622 700.706 208.946 C 700.706 207.27 701.011 205.793 701.622 204.514 C 702.24 203.229 703.099 202.227 704.2 201.51 C 705.308 200.786 706.601 200.423 708.078 200.423 C 708.93 200.423 709.772 200.565 710.603 200.849 C 711.434 201.134 712.19 201.595 712.872 202.234 C 713.554 202.866 714.097 203.705 714.502 204.749 C 714.907 205.793 715.109 207.078 715.109 208.605 L 715.109 209.67 L 702.496 209.67 L 702.496 207.497 L 712.553 207.497 C 712.553 206.574 712.368 205.75 711.999 205.026 C 711.636 204.301 711.118 203.729 710.443 203.31 C 709.776 202.891 708.987 202.682 708.078 202.682 C 707.077 202.682 706.21 202.93 705.479 203.428 C 704.754 203.918 704.197 204.557 703.806 205.345 C 703.415 206.134 703.22 206.979 703.22 207.881 L 703.22 209.33 C 703.22 210.565 703.433 211.613 703.859 212.472 C 704.293 213.325 704.893 213.974 705.66 214.422 C 706.427 214.862 707.318 215.082 708.334 215.082 C 708.994 215.082 709.591 214.99 710.124 214.805 C 710.663 214.614 711.129 214.33 711.519 213.953 C 711.91 213.57 712.212 213.094 712.425 212.526 L 714.854 213.207 C 714.598 214.031 714.168 214.756 713.565 215.381 C 712.961 215.999 712.215 216.482 711.327 216.83 C 710.44 217.17 709.442 217.341 708.334 217.341 Z M 720.766 217.17 C 720.241 217.17 719.79 216.982 719.413 216.606 C 719.037 216.229 718.849 215.778 718.849 215.253 C 718.849 214.727 719.037 214.276 719.413 213.9 C 719.79 213.523 720.241 213.335 720.766 213.335 C 721.292 213.335 721.743 213.523 722.119 213.9 C 722.496 214.276 722.684 214.727 722.684 215.253 C 722.684 215.601 722.595 215.92 722.418 216.212 C 722.247 216.503 722.016 216.737 721.725 216.915 C 721.441 217.085 721.121 217.17 720.766 217.17 Z M 738.616 195.182 L 738.616 217 L 735.974 217 L 735.974 195.182 L 738.616 195.182 Z M 750.689 200.636 L 750.689 202.767 L 742.209 202.767 L 742.209 200.636 L 750.689 200.636 Z M 744.681 196.716 L 747.195 196.716 L 747.195 212.312 C 747.195 213.023 747.298 213.555 747.504 213.911 C 747.717 214.259 747.987 214.493 748.313 214.614 C 748.647 214.727 748.999 214.784 749.368 214.784 C 749.645 214.784 749.872 214.77 750.05 214.741 C 750.227 214.706 750.369 214.678 750.476 214.656 L 750.987 216.915 C 750.817 216.979 750.579 217.043 750.274 217.107 C 749.968 217.178 749.581 217.213 749.112 217.213 C 748.402 217.213 747.706 217.06 747.024 216.755 C 746.35 216.45 745.789 215.984 745.341 215.359 C 744.901 214.734 744.681 213.946 744.681 212.994 L 744.681 196.716 Z M 756.644 195.182 L 756.644 202.682 L 754.301 202.682 L 754.301 195.182 L 756.644 195.182 Z M 772.712 204.301 L 770.454 204.94 C 770.312 204.564 770.102 204.198 769.825 203.843 C 769.555 203.481 769.186 203.183 768.717 202.948 C 768.249 202.714 767.648 202.597 766.917 202.597 C 765.915 202.597 765.081 202.827 764.413 203.289 C 763.753 203.744 763.423 204.322 763.423 205.026 C 763.423 205.651 763.65 206.144 764.104 206.506 C 764.559 206.869 765.269 207.17 766.235 207.412 L 768.664 208.009 C 770.127 208.364 771.217 208.907 771.935 209.638 C 772.652 210.363 773.011 211.297 773.011 212.44 C 773.011 213.378 772.741 214.216 772.201 214.955 C 771.668 215.693 770.923 216.276 769.964 216.702 C 769.005 217.128 767.89 217.341 766.619 217.341 C 764.95 217.341 763.568 216.979 762.474 216.254 C 761.381 215.53 760.688 214.472 760.397 213.08 L 762.783 212.483 C 763.011 213.364 763.44 214.024 764.072 214.464 C 764.712 214.905 765.546 215.125 766.576 215.125 C 767.748 215.125 768.678 214.876 769.367 214.379 C 770.063 213.875 770.411 213.271 770.411 212.568 C 770.411 212 770.212 211.524 769.815 211.141 C 769.417 210.75 768.806 210.459 767.982 210.267 L 765.255 209.628 C 763.756 209.273 762.656 208.722 761.952 207.977 C 761.256 207.224 760.908 206.283 760.908 205.153 C 760.908 204.23 761.168 203.413 761.686 202.703 C 762.212 201.993 762.925 201.435 763.827 201.031 C 764.737 200.626 765.766 200.423 766.917 200.423 C 768.536 200.423 769.808 200.778 770.731 201.489 C 771.661 202.199 772.322 203.136 772.712 204.301 Z M 786.469 217 L 783.699 217 L 791.71 195.182 L 794.437 195.182 L 802.449 217 L 799.679 217 L 793.159 198.634 L 792.988 198.634 L 786.469 217 Z M 787.491 208.477 L 798.656 208.477 L 798.656 210.821 L 787.491 210.821 L 787.491 208.477 Z M 808.02 195.182 L 808.02 217 L 805.506 217 L 805.506 195.182 L 808.02 195.182 Z M 815.14 195.182 L 815.14 217 L 812.625 217 L 812.625 195.182 L 815.14 195.182 Z M 828.182 217 L 828.182 200.636 L 830.696 200.636 L 830.696 217 L 828.182 217 Z M 829.46 197.909 C 828.97 197.909 828.548 197.742 828.193 197.408 C 827.845 197.075 827.671 196.673 827.671 196.205 C 827.671 195.736 827.845 195.335 828.193 195.001 C 828.548 194.667 828.97 194.5 829.46 194.5 C 829.95 194.5 830.369 194.667 830.718 195.001 C 831.073 195.335 831.25 195.736 831.25 196.205 C 831.25 196.673 831.073 197.075 830.718 197.408 C 830.369 197.742 829.95 197.909 829.46 197.909 Z M 837.815 207.156 L 837.815 217 L 835.301 217 L 835.301 200.636 L 837.73 200.636 L 837.73 203.193 L 837.943 203.193 C 838.327 202.362 838.909 201.695 839.69 201.19 C 840.472 200.679 841.48 200.423 842.716 200.423 C 843.824 200.423 844.793 200.651 845.624 201.105 C 846.455 201.553 847.102 202.234 847.563 203.151 C 848.025 204.06 848.256 205.21 848.256 206.602 L 848.256 217 L 845.741 217 L 845.741 206.773 C 845.741 205.487 845.408 204.486 844.74 203.768 C 844.072 203.044 843.156 202.682 841.991 202.682 C 841.189 202.682 840.472 202.856 839.839 203.204 C 839.214 203.552 838.721 204.06 838.359 204.727 C 837.996 205.395 837.815 206.205 837.815 207.156 Z M 873.56 200.636 C 873.432 199.557 872.914 198.719 872.005 198.122 C 871.096 197.526 869.981 197.227 868.66 197.227 C 867.694 197.227 866.849 197.384 866.124 197.696 C 865.407 198.009 864.846 198.438 864.441 198.985 C 864.043 199.532 863.844 200.153 863.844 200.849 C 863.844 201.432 863.983 201.933 864.26 202.352 C 864.544 202.763 864.906 203.108 865.346 203.385 C 865.787 203.655 866.248 203.879 866.731 204.056 C 867.214 204.227 867.658 204.365 868.063 204.472 L 870.279 205.068 C 870.847 205.217 871.479 205.423 872.175 205.686 C 872.878 205.949 873.55 206.308 874.189 206.762 C 874.835 207.21 875.368 207.785 875.787 208.488 C 876.206 209.191 876.415 210.054 876.415 211.077 C 876.415 212.256 876.106 213.321 875.488 214.273 C 874.878 215.224 873.983 215.981 872.804 216.542 C 871.632 217.103 870.208 217.384 868.532 217.384 C 866.969 217.384 865.616 217.131 864.473 216.627 C 863.336 216.123 862.442 215.42 861.788 214.518 C 861.142 213.616 860.776 212.568 860.691 211.375 L 863.418 211.375 C 863.489 212.199 863.766 212.881 864.249 213.42 C 864.739 213.953 865.357 214.351 866.103 214.614 C 866.856 214.869 867.665 214.997 868.532 214.997 C 869.54 214.997 870.446 214.834 871.248 214.507 C 872.051 214.173 872.687 213.712 873.155 213.122 C 873.624 212.526 873.858 211.83 873.858 211.034 C 873.858 210.31 873.656 209.72 873.251 209.266 C 872.846 208.811 872.314 208.442 871.653 208.158 C 870.993 207.874 870.279 207.625 869.512 207.412 L 866.827 206.645 C 865.123 206.155 863.773 205.455 862.779 204.546 C 861.785 203.637 861.287 202.447 861.287 200.977 C 861.287 199.756 861.618 198.69 862.278 197.781 C 862.946 196.865 863.841 196.155 864.963 195.651 C 866.092 195.139 867.353 194.884 868.745 194.884 C 870.151 194.884 871.401 195.136 872.495 195.64 C 873.589 196.137 874.455 196.819 875.094 197.685 C 875.741 198.552 876.081 199.536 876.117 200.636 L 873.56 200.636 Z M 882.038 223.136 C 881.612 223.136 881.232 223.101 880.898 223.03 C 880.564 222.966 880.333 222.902 880.205 222.838 L 880.844 220.622 C 881.455 220.778 881.995 220.835 882.464 220.793 C 882.933 220.75 883.348 220.54 883.71 220.164 C 884.08 219.795 884.417 219.195 884.722 218.364 L 885.191 217.085 L 879.14 200.636 L 881.867 200.636 L 886.384 213.676 L 886.555 213.676 L 891.072 200.636 L 893.799 200.636 L 886.853 219.386 C 886.54 220.232 886.153 220.931 885.692 221.485 C 885.23 222.046 884.694 222.462 884.083 222.732 C 883.479 223.001 882.798 223.136 882.038 223.136 Z M 899.632 207.156 L 899.632 217 L 897.118 217 L 897.118 200.636 L 899.547 200.636 L 899.547 203.193 L 899.76 203.193 C 900.143 202.362 900.725 201.695 901.507 201.19 C 902.288 200.679 903.297 200.423 904.532 200.423 C 905.64 200.423 906.61 200.651 907.441 201.105 C 908.272 201.553 908.918 202.234 909.38 203.151 C 909.841 204.06 910.072 205.21 910.072 206.602 L 910.072 217 L 907.558 217 L 907.558 206.773 C 907.558 205.487 907.224 204.486 906.556 203.768 C 905.889 203.044 904.973 202.682 903.808 202.682 C 903.005 202.682 902.288 202.856 901.656 203.204 C 901.031 203.552 900.537 204.06 900.175 204.727 C 899.813 205.395 899.632 206.205 899.632 207.156 Z M 921.314 217.341 C 919.78 217.341 918.459 216.979 917.351 216.254 C 916.243 215.53 915.391 214.532 914.794 213.261 C 914.198 211.989 913.899 210.537 913.899 208.903 C 913.899 207.241 914.205 205.775 914.816 204.504 C 915.433 203.225 916.293 202.227 917.394 201.51 C 918.502 200.786 919.794 200.423 921.271 200.423 C 922.422 200.423 923.459 200.636 924.382 201.062 C 925.306 201.489 926.062 202.085 926.651 202.852 C 927.241 203.619 927.607 204.514 927.749 205.537 L 925.235 205.537 C 925.043 204.791 924.617 204.131 923.956 203.555 C 923.303 202.973 922.422 202.682 921.314 202.682 C 920.334 202.682 919.475 202.937 918.736 203.449 C 918.004 203.953 917.433 204.667 917.021 205.59 C 916.616 206.506 916.414 207.582 916.414 208.818 C 916.414 210.082 916.612 211.183 917.01 212.121 C 917.415 213.058 917.983 213.786 918.715 214.305 C 919.453 214.823 920.32 215.082 921.314 215.082 C 921.968 215.082 922.561 214.969 923.093 214.741 C 923.626 214.514 924.077 214.188 924.446 213.761 C 924.816 213.335 925.078 212.824 925.235 212.227 L 927.749 212.227 C 927.607 213.193 927.255 214.063 926.694 214.837 C 926.14 215.604 925.405 216.215 924.489 216.67 C 923.58 217.117 922.521 217.341 921.314 217.341 Z M 933.257 217.17 C 932.731 217.17 932.28 216.982 931.904 216.606 C 931.527 216.229 931.339 215.778 931.339 215.253 C 931.339 214.727 931.527 214.276 931.904 213.9 C 932.28 213.523 932.731 213.335 933.257 213.335 C 933.782 213.335 934.233 213.523 934.61 213.9 C 934.986 214.276 935.174 214.727 935.174 215.253 C 935.174 215.601 935.085 215.92 934.908 216.212 C 934.737 216.503 934.507 216.737 934.215 216.915 C 933.931 217.085 933.612 217.17 933.257 217.17 Z" stroke-linecap="round" />
</g>
<g transform="matrix(1.14 0 0 1.43 149.33 572.7)"  >
<path style="stroke: none; stroke-width: 1; stroke-dasharray: none; stroke-linecap: butt; stroke-dashoffset: 0; stroke-linejoin: miter; stroke-miterlimit: 4; fill: rgb(57,224,121); fill-rule: evenodd; opacity: 1;" vector-effect="non-scaling-stroke"  transform=" translate(-169.49, -137.01)" d="M 247.841 80.216 C 259.62 80.216 269.184 70.856 269.184 59.3744 C 269.184 47.872 259.599 38.5328 247.841 38.5328 C 236.062 38.5328 226.499 47.8928 226.499 59.3744 C 226.499 64.1168 228.139 68.5056 230.887 72 L 190.267 106.05 C 189.224 106.923 189.117 108.442 190.012 109.461 C 190.502 110.022 191.205 110.293 191.886 110.293 C 192.461 110.293 193.036 110.106 193.505 109.71 L 234.316 75.4528 C 237.979 78.4272 242.708 80.216 247.841 80.216 Z M 132.182 160.213 L 102.256 190.747 C 98.6775 188.106 94.2258 186.525 89.3907 186.525 C 77.6118 186.525 68.0481 195.885 68.0481 207.366 C 68.0481 218.869 77.6331 228.208 89.3907 228.208 C 101.17 228.208 110.733 218.848 110.733 207.366 C 110.733 202.312 108.88 197.694 105.813 194.075 L 135.718 163.52 C 136.655 162.563 136.634 161.024 135.633 160.109 C 134.674 159.214 133.12 159.235 132.182 160.213 Z M 138.019 108.774 C 138.934 107.797 138.892 106.258 137.891 105.363 L 108.007 78.4064 C 110.584 74.9536 112.118 70.7104 112.118 66.1344 C 112.118 54.632 102.533 45.2928 90.7752 45.2928 C 78.9963 45.2928 69.4326 54.6528 69.4326 66.1344 C 69.4326 77.6368 79.0176 86.976 90.7752 86.976 C 96.0789 86.976 100.914 85.0832 104.663 81.9424 L 134.525 108.92 C 134.994 109.357 135.612 109.565 136.208 109.565 C 136.868 109.565 137.529 109.294 138.019 108.774 Z M 228.245 161.835 C 228.245 173.338 237.83 182.677 249.588 182.677 C 261.367 182.677 270.931 173.317 270.931 161.835 C 270.931 150.333 261.346 140.994 249.588 140.994 C 241.217 140.994 233.954 145.736 230.461 152.6 L 209.395 145.237 C 208.117 144.779 206.69 145.445 206.242 146.693 C 205.774 147.941 206.455 149.334 207.733 149.771 L 228.799 157.134 C 228.437 158.653 228.245 160.234 228.245 161.835 Z M 193.548 194.637 C 195.465 194.096 197.488 193.784 199.576 193.784 C 211.354 193.784 220.918 203.144 220.918 214.646 C 220.918 226.149 211.333 235.488 199.576 235.488 C 187.797 235.488 178.233 226.128 178.233 214.646 C 178.233 206.909 182.578 200.149 189.011 196.55 L 174.718 163.749 C 174.186 162.522 174.761 161.107 176.018 160.587 C 177.274 160.067 178.723 160.629 179.255 161.856 L 193.548 194.637 Z M 168.179 113.642 L 158.743 113.642 C 144.153 113.642 131.948 124.312 130.308 138.435 C 129.967 141.451 130.84 144.134 132.907 146.402 C 134.973 148.669 137.614 149.813 140.724 149.813 L 186.178 149.813 C 189.288 149.813 191.908 148.669 193.995 146.402 C 196.061 144.134 196.934 141.451 196.594 138.435 C 194.975 124.312 182.749 113.642 168.179 113.642 Z M 180.938 89.8672 C 180.938 80.4656 173.1 72.8112 163.472 72.8112 C 153.844 72.8112 146.006 80.4656 146.006 89.8672 C 146.006 99.2688 153.844 106.923 163.472 106.923 C 173.1 106.923 180.938 99.2688 180.938 89.8672 Z" stroke-linecap="round" />
</g>
<g transform="matrix(1.08 0 0 1.35 540.08 504.67)" style="" id="a81611b3-e2d6-46f3-8d32-f6088070b3b9"  >
		<text xml:space="preserve" font-family="Raleway" font-size="105" font-style="normal" font-weight="400" style="stroke: none; stroke-width: 1; stroke-dasharray: none; stroke-linecap: butt; stroke-dashoffset: 0; stroke-linejoin: miter; stroke-miterlimit: 4; fill: rgb(245,239,239); fill-rule: nonzero; opacity: 1; white-space: pre;" ><tspan x="-173.88" y="32.98" >Stream</tspan></text>
</g>
<g transform="matrix(1.08 0 0 1.35 862.25 512.67)" style="" id="ce28f39d-2edf-42e7-8926-0feb98362e03"  >
		<text xml:space="preserve" font-family="Raleway" font-size="105" font-style="normal" font-weight="400" style="stroke: none; stroke-width: 1; stroke-dasharray: none; stroke-linecap: butt; stroke-dashoffset: 0; stroke-linejoin: miter; stroke-miterlimit: 4; fill: rgb(57,225,120); fill-rule: nonzero; opacity: 1; white-space: pre;" ><tspan x="-138.97" y="32.98" >Share</tspan></text>
</g>
</svg>